<?xml version="1.0" encoding="iso-8859-1"?>
<!-- Generator: Adobe Illustrator 19.0.0, SVG Export Plug-In . SVG Version: 6.00 Build 0)  -->
<svg version="1.1" id="Layer_1" xmlns="http://www.w3.org/2000/svg" xmlns:xlink="http://www.w3.org/1999/xlink" x="0px" y="0px"
	 width="50.00px" height="50.000px" 
	 viewBox="0 0 469.333 469.333" style="enable-background:new 0 0 469.333 469.333;" xml:space="preserve">
<path style="fill:#fe3366;" d="M458.667,266.699c0,11.765-9.536,21.301-21.301,21.301H31.968c-11.765,0-21.301-9.536-21.301-21.301
	V31.968c0-11.765,9.536-21.301,21.301-21.301h405.397c11.765,0,21.301,9.536,21.301,21.301V266.699z"/>
<rect x="10.667" y="74.667" style="fill:#FFF;" width="448" height="64"/>
<circle cx="394.667" cy="181.333" r="10.667"/>
<circle cx="352" cy="181.333" r="10.667"/>
<circle cx="309.333" cy="181.333" r="10.667"/>
<circle style="fill:#FFF;" cx="128" cy="341.333" r="117.333"/>
<ellipse style="fill:#FFF;" cx="128" cy="341.333" rx="64" ry="117.333"/>
<path d="M437.365,0H31.968C14.336,0,0,14.336,0,31.968v42.699v64v128.032c0,9.408,4.16,17.803,10.656,23.659
	C3.84,305.984,0,323.211,0,341.333c0,70.581,57.419,128,128,128s128-57.419,128-128c0-14.976-2.72-29.301-7.467-42.667h188.832
	c17.632,0,31.968-14.336,31.968-31.968V138.667v-64V31.968C469.333,14.336,454.997,0,437.365,0z M179.445,247.957
	c13.216,7.307,24.64,17.387,33.685,29.376h-20.224C189.28,266.379,184.736,256.512,179.445,247.957z M181.056,330.667h-42.389v-32
	h38.005C178.933,308.683,180.469,319.435,181.056,330.667z M138.667,277.333v-40.416c12.693,5.397,23.851,20.224,31.595,40.416
	H138.667z M117.333,277.333H85.739c7.733-20.192,18.891-35.019,31.595-40.416V277.333z M63.093,277.333H42.869
	c9.035-11.989,20.469-22.069,33.685-29.376C71.264,256.512,66.72,266.379,63.093,277.333z M31.968,298.667H32h25.515
	c-2.027,10.123-3.36,20.821-3.883,32H21.877c1.131-11.349,4.107-22.133,8.523-32.16C30.923,298.539,31.424,298.667,31.968,298.667z
	 M32,384c-0.555,0-1.024,0.235-1.547,0.309c-4.459-10.059-7.445-20.907-8.576-32.309h31.765c0.512,11.179,1.856,21.877,3.883,32H32z
	 M42.869,405.333h20.224c3.627,10.955,8.16,20.821,13.451,29.376C63.339,427.403,51.904,417.323,42.869,405.333z M117.333,445.749
	c-12.693-5.397-23.851-20.224-31.595-40.416h31.595V445.749z M117.333,384H79.328c-2.261-10.016-3.797-20.768-4.384-32h42.389V384z
	 M117.333,330.667H74.944c0.587-11.232,2.123-21.984,4.384-32h38.005V330.667z M138.667,445.749v-40.416h31.595
	C162.517,425.525,151.36,440.352,138.667,445.749z M138.667,384v-32h42.389c-0.587,11.232-2.123,21.984-4.384,32H138.667z
	 M179.445,434.709c5.291-8.555,9.835-18.421,13.451-29.376h20.224C204.096,417.323,192.661,427.403,179.445,434.709z
	 M225.547,384.309C225.024,384.235,224.555,384,224,384h-25.515c2.027-10.123,3.36-20.821,3.883-32h31.765
	C232.992,363.403,230.005,374.251,225.547,384.309z M234.123,330.667h-31.765c-0.512-11.179-1.856-21.877-3.883-32H224h1.675
	C230.048,308.64,233.003,319.381,234.123,330.667z M448,266.699c0,5.867-4.768,10.635-10.635,10.635H238.677
	c-22.176-38.197-63.424-64-110.677-64c-44.075,0-83.019,22.4-106.048,56.405c-0.299-0.981-0.619-1.963-0.619-3.04V149.333H448
	V266.699z M448,128H21.333V85.333H448V128z M448,64H21.333V31.968c0-5.867,4.768-10.635,10.635-10.635h405.397
	c5.867,0,10.635,4.768,10.635,10.635V64z"/>
<path d="M426.677,416c-3.445,0-6.827-1.664-8.885-4.747c-3.264-4.896-1.941-11.531,2.955-14.795L439.435,384l-18.688-12.459
	c-4.896-3.264-6.219-9.888-2.955-14.795c3.264-4.907,9.888-6.229,14.795-2.955l32,21.333c2.965,1.984,4.747,5.312,4.747,8.875
	c0,3.563-1.781,6.891-4.747,8.875l-32,21.333C430.763,415.424,428.704,416,426.677,416z"/>
<g>
	<circle style="fill:#231F20;" cx="394.667" cy="384" r="10.667"/>
	<circle style="fill:#231F20;" cx="352" cy="384" r="10.667"/>
</g>
<path d="M319.989,416c-2.027,0-4.085-0.576-5.909-1.792l-32-21.333c-2.965-1.984-4.747-5.312-4.747-8.875
	c0-3.563,1.781-6.891,4.747-8.875l32-21.333c4.896-3.275,11.509-1.952,14.795,2.955c3.264,4.896,1.941,11.531-2.955,14.795
	L307.232,384l18.688,12.459c4.896,3.264,6.219,9.888,2.955,14.795C326.816,414.336,323.435,416,319.989,416z"/>
<circle cx="352" cy="384" r="10.667"/>
<circle cx="394.667" cy="384" r="10.667"/>
<path d="M138.667,192H53.333c-5.888,0-10.667-4.779-10.667-10.667s4.779-10.667,10.667-10.667h85.333
	c5.888,0,10.667,4.779,10.667,10.667S144.555,192,138.667,192z"/>
<path d="M213.333,192h-32c-5.888,0-10.667-4.779-10.667-10.667s4.779-10.667,10.667-10.667h32c5.888,0,10.667,4.779,10.667,10.667
	S219.221,192,213.333,192z"/>
<g>
</g>
<g>
</g>
<g>
</g>
<g>
</g>
<g>
</g>
<g>
</g>
<g>
</g>
<g>
</g>
<g>
</g>
<g>
</g>
<g>
</g>
<g>
</g>
<g>
</g>
<g>
</g>
<g>
</g>
</svg>
