<svg height="50px" viewBox="-3 0 480 480" width="50px" xmlns="http://www.w3.org/2000/svg" fill="#f7608b">
    <path d="m382.191406 396c-1.066406-1.867188-2.84375-3.226562-4.925781-3.769531s-4.292969-.226563-6.136719.882812l-31.761718 19.054688-81.765626-218.023438c10.226563-7.128906 15.355469-19.5625 13.128907-31.828125-2.226563-12.265625-11.402344-22.105468-23.484375-25.179687v-9.136719h-16v9.136719c-11.957032 3.027343-21.089844 12.695312-23.421875 24.8125-2.335938 12.113281 2.546875 24.484375 12.527343 31.738281l-46.542968 116.367188-39.703125-66.175782c-1.335938-2.21875-3.660157-3.652344-6.242188-3.851562-2.582031-.199219-5.101562.863281-6.757812 2.851562l-35.402344 42.472656-18.015625-12c-1.941406-1.292968-4.347656-1.675781-6.59375-1.046874-2.246094.628906-4.105469 2.207031-5.09375 4.320312l-56 120 14.496094 6.765625 52.0625-111.558594 16.25 10.832031c3.402344 2.269532 7.964844 1.605469 10.582031-1.535156l32.800781-39.34375 42.207032 70.34375c1.550781 2.617188 4.457031 4.121094 7.488281 3.871094 3.03125-.242188 5.664062-2.179688 6.792969-5l48.566406-121.449219v14.449219h16v-11.878906l80.507812 214.6875c.832032 2.226562 2.613282 3.964844 4.855469 4.746094 2.246094.78125 4.722656.527343 6.757813-.699219l32.992187-19.792969 27.945313 48.9375c1.429687 2.480469 4.078124 4.003906 6.941406 4 .960937-.003906 1.910156-.171875 2.808594-.503906l64-24-5.597657-14.992188-57.601562 21.601563zm-142.945312-212c-8.835938 0-16-7.164062-16-16s7.164062-16 16-16c8.839844 0 16 7.164062 16 16s-7.160156 16-16 16zm0 0"/><path d="m359.246094 240c3.046875.015625 5.839844-1.699219 7.203125-4.425781l40-80c1.488281-2.972657.984375-6.554688-1.265625-9.003907-2.253906-2.445312-5.785156-3.242187-8.871094-2.003906l-37.066406 14.816406-37.023438-14.816406c-3.085937-1.238281-6.617187-.441406-8.867187 2.003906-2.253907 2.449219-2.757813 6.03125-1.265625 9.003907l40 80c1.355468 2.714843 4.125 4.425781 7.15625 4.425781zm-2.972656-64.566406c1.910156.75 4.039062.75 5.949218 0l20.457032-8.195313-23.433594 46.875-23.429688-46.875zm0 0"/>
    <path d="m82.222656 191.433594 37.023438-14.816406 37.027344 14.816406c3.089843 1.265625 6.640624.480468 8.90625-1.972656 2.269531-2.453126 2.773437-6.054688 1.269531-9.035157l-40-80c-1.503907-2.523437-4.226563-4.070312-7.160157-4.070312-2.9375 0-5.65625 1.546875-7.160156 4.070312l-40 80c-1.492187 2.972657-.988281 6.554688 1.265625 9.003907 2.253907 2.445312 5.785157 3.242187 8.871094 2.003906zm37.023438-69.546875 23.433594 46.914062-20.457032-8.191406c-1.910156-.757813-4.039062-.757813-5.949218 0l-20.457032 8.191406zm0 0"/>
    <path d="m231.246094 0h16v32h-16zm0 0"/>
    <path d="m231.246094 64h16v32h-16zm0 0"/>
    <path d="m231.246094 256h16v32h-16zm0 0"/>
    <path d="m231.246094 320h16v32h-16zm0 0" fill="#f7608b"/>
    <path d="m231.246094 384h16v32h-16zm0 0" fill="#f7608b"/>
    <path d="m231.246094 448h16v32h-16zm0 0" fill="#f7608b"/>
</svg>
